<svg xmlns="http://www.w3.org/2000/svg" xmlns:xlink="http://www.w3.org/1999/xlink" version="1.1" style="" xml:space="preserve" width="600" height="600"><rect id="backgroundrect" width="100%" height="100%" x="0" y="0" fill="none" stroke="none" class="" style=""/>
<g class="currentLayer" style=""><title>Logo</title><g id="svg_9">
</g>
	<path d="M450.2286808079478,259.4838469899684 c-0.012851545949748284,-0.10538267678793597 -0.020562473519597266,-0.2120505081708467 -0.03598432865929521,-0.3161480303638082 c-0.0745389665085401,-0.5192024563698306 -0.1734958703216019,-1.037119758144686 -0.3135777211738585,-1.5486112869446682 c-0.0012851545949748306,-0.005140618379899316 -0.0038554637849244886,-0.01028123675979864 -0.005140618379899316,-0.016707009734672762 c-0.13108576868743244,-0.47807750933063636 -0.29815586603416055,-0.9497292456863987 -0.4870735914954603,-1.4162403636622605 c-0.05397649298894285,-0.1336560778773822 -0.11309360435778501,-0.26217153737486526 -0.1709255611316521,-0.3932573060622978 c-0.1490779330170803,-0.3367105038834054 -0.31486287576883354,-0.6682803893869108 -0.4947845190653089,-0.9947096565105173 c-0.07839443029346464,-0.14265216004220604 -0.15421855139697954,-0.2853043200844122 -0.2390387546653182,-0.4253861709366685 c-0.044980410824119035,-0.07582412110351498 -0.08096473948341434,-0.15421855139697954 -0.12851545949748294,-0.23004267250049434 c-0.1902028800562748,-0.3020113298190849 -0.398397924442197,-0.5860304953085218 -0.6091632780180689,-0.8674793516080096 c-0.03983979244421975,-0.05269133839396804 -0.07196865731859042,-0.10795298597788562 -0.11180844976281012,-0.15935916977687895 c-0.3212886487437071,-0.4163900887718447 -0.6682803893869108,-0.8032216218592676 -1.0319791397647868,-1.1694906814270933 c-0.06811319353366593,-0.06939834812864076 -0.14265216004220604,-0.1336560778773822 -0.21333566276582158,-0.20048411681607328 c-0.3161480303638082,-0.3045816390090347 -0.643862452082389,-0.5898859590934461 -0.985713574345693,-0.8584832694431856 c-0.08739051245828848,-0.06811319353366593 -0.17221071572662702,-0.13622638706733195 -0.26217153737486526,-0.2017692714110481 c-0.4575150358110388,-0.3392808130733552 -0.9291667721668004,-0.6554288434371627 -1.42138098204216,-0.9291667721668004 L254.38268692513878,142.13381061362696 l109.01323851873978,-68.64524753598546 l182.75797948758532,103.88161622100527 l-76.9691938476374,48.46703524028568 c-6.006812576912346,3.7809248184159445 -7.809884473662028,11.716754442385508 -4.02767450065111,17.72228186470287 c3.7809248184159445,6.006812576912346 11.71546928779053,7.809884473662028 17.72228186470287,4.02767450065111 l95.1348540476066,-59.90491113556165 c3.8246200746450887,-2.407094556387853 6.103199171535457,-6.646819565209809 6.000386803937471,-11.165423121141306 c-0.10152721300301144,-4.5186035559314925 -2.5677388807597064,-8.649090424180592 -6.49774163219273,-10.882689110246844 L369.4078786391708,47.34080768828364 c-4.116350167704375,-2.3415516720441363 -9.18885535407002,-2.225887758496402 -13.19853769039148,0.2968707114391854 L222.6098098735761,131.76518334137003 c-0.026988246494471433,0.016707009734672762 -0.055261647583917675,0.034699174064320416 -0.0822498940783891,0.05140618379899319 l-66.75992574515737,42.0386919562216 c-0.03084371027939588,0.019277318924622457 -0.061687420558791804,0.0385546378492449 -0.09124597624321297,0.057831956773867314 L21.98561120665071,258.0984503365856 c-3.8246200746450887,2.407094556387853 -6.103199171535457,6.646819565209809 -6.000386803937471,11.165423121141306 c0.10152721300301144,4.5186035559314925 2.5677388807597064,8.649090424180592 6.49774163219273,10.882689110246844 l208.11022418265375,118.29333984905301 c1.9714271486913857,1.1219399614130248 4.161330578528493,1.679697055632101 6.349948853770624,1.679697055632101 c2.381391464488357,0 4.758927465191788,-0.6618546164120372 6.847303682025883,-1.976567767071285 l95.1348540476066,-59.90619629015662 c6.006812576912346,-3.7809248184159445 7.809884473662028,-11.716754442385508 4.02767450065111,-17.72228186470287 c-3.7796396638209684,-6.006812576912346 -11.716754442385508,-7.811169628257003 -17.72228186470287,-4.02767450065111 l-88.6255460240591,55.80655313218692 L53.84716392526664,268.40924565206865 l109.01452367333475,-68.64653269058043 l194.91939741983214,110.79574794196986 v146.7415219634158 c0,4.680533034898324 2.5433209434551842,8.989656391848921 6.640393792234936,11.25152847900462 c1.936727974627066,1.0692486230190568 4.075225220665178,1.6000174707436614 6.211152157513343,1.6000174707436614 c2.3826766190833313,0 4.7602126197867625,-0.6618546164120372 6.847303682025883,-1.976567767071285 l66.8460311030207,-42.092668449210535 c3.7372295621867995,-2.3531180633989095 6.004242267722397,-6.459186994343484 6.004242267722397,-10.874978182676992 v-154.21855139697934 c0,-0.07582412110351498 -0.012851545949748284,-0.14779277842210542 -0.015421855139697951,-0.2236168995256202 C450.3070752382413,260.33847479562667 450.2788018371518,259.91180347009504 450.2286808079478,259.4838469899684 zM383.4841769179301,434.02197768809475 V303.08271662448954 c0,-4.622701078124456 -2.482918677491368,-8.888129178845908 -6.501597095977655,-11.171848894116177 l-189.44592399983438,-107.68438866753579 l42.169777724909025,-26.555149395964868 l182.75669433299035,103.88290137560026 l-16.00145986203158,10.07561202460265 c-6.006812576912346,3.7809248184159445 -7.809884473662028,11.716754442385508 -4.02767450065111,17.72228186470287 c2.4417937304521726,3.8811668768239804 6.6172610095253885,6.005527422317371 10.88782972862674,6.005527422317371 c2.3389813628541867,0 4.7088064359877695,-0.6387218337024901 6.834452136076134,-1.9778529216662597 l14.469555584821586,-9.110460923776554 v123.84520769934427 L383.4841769179301,434.02197768809475 z" id="svg_2" fill="#2d314d" class=""/>
	<path d="M564.320850286028,217.33720204776895 l-95.1348540476066,59.90491113556165 c-6.006812576912346,3.7809248184159445 -7.809884473662028,11.716754442385508 -4.02767450065111,17.72228186470287 c2.4417937304521726,3.8811668768239804 6.6172610095253885,6.005527422317371 10.88782972862674,6.005527422317371 c2.3389813628541867,0 4.7088064359877695,-0.6387218337024901 6.834452136076134,-1.9778529216662597 l95.1348540476066,-59.90491113556165 c6.006812576912346,-3.7809248184159445 7.809884473662028,-11.716754442385508 4.02767450065111,-17.72228186470287 C578.262207332315,215.3580639715077 570.3263777083455,213.55370692016305 564.320850286028,217.33720204776895 z" id="svg_3" fill="#2d314d" class=""/>
	<path d="M325.22940428231607,367.891777694475 l-88.6255460240591,55.80655313218692 L35.18286374244722,309.2077634241395 c-6.1661717466892245,-3.5059017350913306 -14.015896012795473,-1.351982633913519 -17.523082902481775,4.821900040345555 c-3.507186889686305,6.170027210474148 -1.3494123247235694,14.015896012795473 4.821900040345555,17.523082902481775 l208.11022418265375,118.29333984905301 c1.9714271486913857,1.1219399614130248 4.161330578528493,1.679697055632101 6.349948853770624,1.679697055632101 c2.381391464488357,0 4.758927465191788,-0.6618546164120372 6.847303682025883,-1.976567767071285 l95.1348540476066,-59.90619629015662 c6.006812576912346,-3.7809248184159445 7.809884473662028,-11.716754442385508 4.02767450065111,-17.72228186470287 C339.172046483198,365.91263961821386 331.23493170463354,364.10828256686915 325.22940428231607,367.891777694475 z" id="svg_4" fill="#2d314d" class=""/>
	<path d="M564.320850286028,268.74338584676207 l-95.1348540476066,59.90491113556165 c-6.006812576912346,3.7809248184159445 -7.809884473662028,11.716754442385508 -4.02767450065111,17.72228186470287 c2.4417937304521726,3.8811668768239804 6.6172610095253885,6.005527422317371 10.88782972862674,6.005527422317371 c2.3389813628541867,0 4.7088064359877695,-0.6387218337024901 6.834452136076134,-1.9778529216662597 l95.1348540476066,-59.90491113556165 c6.006812576912346,-3.7809248184159445 7.809884473662028,-11.716754442385508 4.02767450065111,-17.72228186470287 C578.262207332315,266.7629626159058 570.3263777083455,264.95989071915614 564.320850286028,268.74338584676207 z" id="svg_5" fill="#2d314d" class=""/>
	<path d="M325.22940428231607,419.2979614934681 l-88.6255460240591,55.80655313218692 L35.18286374244722,360.6139472231326 c-6.1661717466892245,-3.5059017350913306 -14.015896012795473,-1.351982633913519 -17.523082902481775,4.821900040345555 c-3.507186889686305,6.170027210474148 -1.3494123247235694,14.015896012795473 4.821900040345555,17.523082902481775 l208.11022418265375,118.29333984905301 c1.9714271486913857,1.1219399614130248 4.161330578528493,1.679697055632101 6.349948853770624,1.679697055632101 c2.381391464488357,0 4.758927465191788,-0.6618546164120372 6.847303682025883,-1.976567767071285 l95.1348540476066,-59.90619629015662 c6.006812576912346,-3.7809248184159445 7.809884473662028,-11.716754442385508 4.02767450065111,-17.72228186470287 C339.172046483198,417.31753826261195 331.23493170463354,415.5144663658623 325.22940428231607,419.2979614934681 z" id="svg_6" fill="#2d314d" class=""/>
	<path d="M564.320850286028,320.1495696457552 l-95.1348540476066,59.90491113556165 c-6.006812576912346,3.7809248184159445 -7.809884473662028,11.716754442385508 -4.02767450065111,17.72228186470287 c2.4417937304521726,3.8811668768239804 6.6172610095253885,6.005527422317371 10.88782972862674,6.005527422317371 c2.3389813628541867,0 4.7088064359877695,-0.6387218337024901 6.834452136076134,-1.9778529216662597 l95.1348540476066,-59.90491113556165 c6.006812576912346,-3.7809248184159445 7.809884473662028,-11.716754442385508 4.02767450065111,-17.72228186470287 C578.262207332315,318.1704315694939 570.3263777083455,316.36735967274427 564.320850286028,320.1495696457552 z" id="svg_7" fill="#2d314d" class=""/>
	<path d="M325.22940428231607,470.70414529246125 l-88.6255460240591,55.80655313218692 L35.18286374244722,412.02013102212567 c-6.1661717466892245,-3.5059017350913306 -14.015896012795473,-1.351982633913519 -17.523082902481775,4.821900040345555 c-3.507186889686305,6.170027210474148 -1.3494123247235694,14.015896012795473 4.821900040345555,17.523082902481775 l208.11022418265375,118.29333984905301 c1.9714271486913857,1.1219399614130248 4.161330578528493,1.679697055632101 6.349948853770624,1.679697055632101 c2.381391464488357,0 4.758927465191788,-0.6618546164120372 6.847303682025883,-1.976567767071285 l95.1348540476066,-59.90619629015662 c6.006812576912346,-3.7809248184159445 7.809884473662028,-11.716754442385508 4.02767450065111,-17.72228186470287 C339.172046483198,468.7250072162001 331.23493170463354,466.9206501648554 325.22940428231607,470.70414529246125 z" id="svg_8" fill="#2d314d" class=""/>
<g id="svg_10">
</g><g id="svg_11">
</g><g id="svg_12">
</g><g id="svg_13">
</g><g id="svg_14">
</g><g id="svg_15">
</g><g id="svg_16">
</g><g id="svg_17">
</g><g id="svg_18">
</g><g id="svg_19">
</g><g id="svg_20">
</g><g id="svg_21">
</g><g id="svg_22">
</g><g id="svg_23">
</g></g></svg>